<?xml version="1.0" encoding="UTF-8"?>
<svg id="a" data-name="Layer 1" xmlns="http://www.w3.org/2000/svg" width="24" height="24" viewBox="0 0 24 24">
  <path d="M23,22V6.99707h-2v5.00293h-3v-1h1c.55273,0,1-.44727,1-1V6h1v-2h-2.21973l-.81055-3.24219c-.11133-.44531-.51074-.75781-.96973-.75781H7c-.45898,0-.8584,.3125-.96973,.75781l-.81055,3.24219H3v2h1v4c0,.55273,.44727,1,1,1h1v1H3V6.99707H1v15.00293H0v2H4v-2h-1V14H21v8h-1v2h4v-2h-1ZM7.78125,2h8.4375l.50061,2H7.28064l.50061-2Zm10.21875,4v3H6v-3h12Zm-10,5h8v1H8v-1Z" fill="#1f2533"/>
</svg>