<?xml version="1.0" encoding="UTF-8"?>
<svg id="a" data-name="Layer 1" xmlns="http://www.w3.org/2000/svg" width="24" height="24" viewBox="0 0 24 24">
  <path d="M23,2H13V0h-2V2H1c-.55225,0-1,.44727-1,1v3c0,.55273,.44775,1,1,1H3c.33447,0,.64648-.16699,.83203-.44531l1.70312-2.55469h5.46484v3h-2c-.55225,0-1,.44727-1,1v4h-1c-.55225,0-1,.44727-1,1v9c0,.55273,.44775,1,1,1v1h2v-1h6v1h2v-1c.55225,0,1-.44727,1-1V13c0-.55273-.44775-1-1-1h-1v-4c0-.55273-.44775-1-1-1h-2v-3h5.46484l1.70312,2.55469c.18555,.27832,.49756,.44531,.83203,.44531h2c.55225,0,1-.44727,1-1V3c0-.55273-.44775-1-1-1ZM2.46484,5h-.46484v-1h1.13135l-.6665,1Zm6.53516,9h7v1H8v-1h1Zm-1,3h8v4H8v-4Zm6-5h-4v-3h4v3Zm8-7h-.46484l-.6665-1h1.13135v1Z" fill="#1f2533"/>
</svg>