<?xml version="1.0" encoding="UTF-8"?>
<svg id="a" data-name="Layer 1" xmlns="http://www.w3.org/2000/svg" width="24" height="24" viewBox="0 0 24 24">
  <path d="M14.29787,1.64125v-.61997c0-.56449-.45728-1.02128-1.02128-1.02128C5.95562,0,0,5.95612,0,13.2766c0,.56449,.45728,1.02128,1.02128,1.02128h.6196c.7495,5.51236,5.4572,9.70213,11.12508,9.70213,6.19448,0,11.23404-5.03956,11.23404-11.23404,0-5.66863-4.18958-10.37583-9.70213-11.12471Zm-2.04255,.44718v3.08178c-3.69016,.46177-6.62334,3.39495-7.08561,7.08511H2.08843C2.57563,6.87367,6.87367,2.57513,12.25532,2.08843Zm.51064,19.86902c-4.54158,0-8.32823-3.28798-9.05822-7.65957h2.41992c.564,0,1.02128-.45678,1.02128-1.02128,0-3.37899,2.74867-6.12766,6.12766-6.12766,.564,0,1.02128-.45678,1.02128-1.02128V3.70824c4.37147,.72974,7.65957,4.5159,7.65957,9.05772,0,5.06848-4.1235,9.19149-9.19149,9.19149Z" fill="#1f2533"/>
  <path d="M12.76596,8.68085c-2.25249,0-4.08511,1.83211-4.08511,4.08511s1.83261,4.08511,4.08511,4.08511,4.08511-1.83211,4.08511-4.08511-1.83261-4.08511-4.08511-4.08511Zm0,6.12766c-1.1265,0-2.04255-.91656-2.04255-2.04255s.91606-2.04255,2.04255-2.04255,2.04255,.91656,2.04255,2.04255-.91606,2.04255-2.04255,2.04255Z" fill="#1f2533"/>
  <circle cx="19.40426" cy="14.29787" r="1.53191" fill="#1f2533"/>
  <circle cx="17.3617" cy="8.17021" r="1.53191" fill="#1f2533"/>
  <circle cx="14.29787" cy="19.40426" r="1.53191" fill="#1f2533"/>
  <circle cx="8.17021" cy="17.3617" r="1.53191" fill="#1f2533"/>
</svg>