<?xml version="1.0" encoding="UTF-8"?>
<svg id="a" data-name="Layer 1" xmlns="http://www.w3.org/2000/svg" width="24" height="24" viewBox="0 0 24 24">
  <path d="M14.2605,16.36877l-2.83936,.38983,3.92822-11.00018,.24213-.67804,1.69299,.61285,1.17908,5.31976,1.2348-4.46313,2.01666,.71558-1.7547,6.62012c.69861,.00403,1.31934,.16467,1.85046,.43433l2.18921-8.25964L15.15118,2.85248,4.77484,6.13055,0,17.36169l9.95331,1.51617,6.18793-.84949c-.05139-1.05725,.2384-2.00464,.79578-2.73358l-.99335-4.48047-1.68317,5.55444Zm-4.8656,.41443l-2.63538-.37604,1.5434-4.17181-2.33112,.17059-1.48889,3.67633-1.76721-.2522L6.19238,7.65228l1.99066-.68433-1.26935,3.11908,2.41968-.42157,1.36346-3.56171,2.86322-.98431-4.16516,11.66376Z" fill="#1f2533"/>
  <path d="M20.57477,19.92102c1.03992-.67798,2.0188-1.21619,2.0188-2.65887,0-1.604-1.25409-2.37885-2.66101-2.37885-1.77429,0-2.896,1.25952-2.79382,3.1217h1.62109c.01038-.81824,.26526-1.5177,1.18268-1.5177,.5509,0,.91791,.35498,.91791,.93652,0,.50574-.38733,.8717-.92786,1.2486-.5509,.36597-1.24414,.75336-1.85608,1.31348-.70361,.63501-1.10089,1.53912-1.11127,2.49713h5.69977v-1.55011h-3.37506c.45917-.47375,.74432-.65649,1.28485-1.0119Z" fill="#1f2533"/>
</svg>