<?xml version="1.0" encoding="UTF-8"?><svg id="icon" xmlns="http://www.w3.org/2000/svg" width="24" height="24" viewBox="0 0 24 24"><rect x="8" y="12" width="8" height="2" fill="#1f2533"/><rect x="8" y="15" width="8" height="2" fill="#1f2533"/><path d="m23,12v-6h-2v3h-1.13l-.87-6.07V0h-2v2H7V0h-2v2.93l-.87,6.07h-1.13v-3H1v6h2v-1h1v1.59l-1.71,1.71c-.19.19-.29.44-.29.71v3.99c0,.55.45,1,1,1v3.01c0,.55.45,1,1,1h2c.55,0,1-.45,1-1v-3.01h10v3.01c0,.55.45,1,1,1h2c.55,0,1-.45,1-1v-3.01c.55,0,1-.45,1-1v-3.99c0-.27-.11-.52-.29-.71l-1.71-1.71v-1.59h1v1h2ZM6.87,4h10.27l.71,5H6.15l.71-5Zm11.43,9.71l1.71,1.71v2.58H4v-2.58l1.71-1.71c.19-.19.29-.44.29-.71v-2h12v2c0,.27.11.52.29.71Z" fill="#1f2533"/></svg>