<?xml version="1.0" encoding="UTF-8"?>
<svg id="a" data-name="Layer 1" xmlns="http://www.w3.org/2000/svg" width="24" height="24" viewBox="0 0 24 24">
  <path d="M19.5,4h-1V1c0-.55273-.44727-1-1-1h-4c-.55273,0-1,.44727-1,1v1H5.4502c-.55273,0-1,.44727-1,1V7h2v-3h2.0498v5h2V4h2v14h-4v-3h2c.55273,0,1-.44727,1-1v-2c0-.55273-.44727-1-1-1H4.5c-.55273,0-1,.44727-1,1v2c0,.55273,.44727,1,1,1h2v3h-2c-.55273,0-1,.44727-1,1v4c0,.55273,.44727,1,1,1h13c.55273,0,1-.44727,1-1V11h1c.55273,0,1-.44727,1-1V5c0-.55273-.44727-1-1-1Zm-3-2v2h-2V2h2Zm0,20H5.5v-2h11v2Zm0-4h-2v-7h2v7Zm2-9h-4v-3h4v3Z" fill="#1f2533"/>
</svg>