<?xml version="1.0" encoding="UTF-8"?>
<svg id="a" data-name="Layer 1" xmlns="http://www.w3.org/2000/svg" width="24" height="24" viewBox="0 0 24 24">
  <path d="M23.31641,16.66992l-5.60742-1.86914-1.81445-3.62988c-.16992-.33887-.51562-.55273-.89453-.55273H4c-.41699,0-.79004,.25879-.93652,.64844L.06348,19.2666c-.09473,.25488-.08301,.53711,.03418,.78223s.32812,.43164,.58594,.51758l2.42493,.80829c.33771,1.28687,1.50006,2.24347,2.89148,2.24347,1.30194,0,2.40161-.8385,2.81573-2h5.36859c.41412,1.1615,1.51373,2,2.81567,2s2.40161-.8385,2.81573-2h2.18427c.43066,0,.81249-.27539,.94824-.68359l1-3c.1748-.52441-.1084-1.09082-.63184-1.26465Zm-7.93457-2.05176h-6.38184v-2h5.38184l1,2Zm-10.68848-2h2.30664v2H3.9433l.75006-2Zm1.30664,9c-.55176,0-1-.44824-1-1s.44824-1,1-1,1,.44824,1,1-.44824,1-1,1Zm11,0c-.55176,0-1-.44824-1-1s.44824-1,1-1,1,.44824,1,1-.44824,1-1,1Zm4.2793-2h-1.46356c-.41412-1.1615-1.51379-2-2.81573-2s-2.40161,.8385-2.81573,2h-5.36853c-.41412-1.1615-1.51379-2-2.81573-2-1.19208,0-2.21515,.70392-2.69867,1.71338l-1.00055-.3335,.89252-2.37988h13.64551l4.89655,1.63281-.45605,1.36719Z" fill="#1f2533"/>
  <polygon points="15.20703 9.3252 18 6.53223 20.79297 9.3252 22.20703 7.91113 19.41406 5.11816 22.20703 2.3252 20.79297 .91113 18 3.7041 15.20703 .91113 13.79297 2.3252 16.58594 5.11816 13.79297 7.91113 15.20703 9.3252" fill="#1f2533"/>
  <polygon points="10.70703 2.08887 9.29297 .6748 3.7627 6.2041 1.70703 4.14941 .29297 5.56348 3.7627 9.03223 10.70703 2.08887" fill="#1f2533"/>
</svg>