<?xml version="1.0" encoding="UTF-8"?>
<svg id="a" data-name="Layer 1" xmlns="http://www.w3.org/2000/svg" width="24" height="24" viewBox="0 0 24 24">
  <path d="M15.98242,7.08594c.13379,.16699,.34473,.5293,.54688,1.20215l1.91602-.57617c-.6748-2.24121-1.71094-2.71191-2.46094-2.71191-2.08203,0-3.01465,3.51562-3.01465,7h2c0-2.7793,.64062-4.4541,1.0127-4.91406Z" fill="#1f2533"/>
  <path d="M24,11h-1.90228c-.27405-5.68146-2.85876-10-6.11334-10-.11755,0-.23193,.01935-.34766,.03046v-.03046h-7.53809C4.8219,1,2.22028,5.31854,1.94446,11H0v2H1.94446c.27582,5.68146,2.87744,10,6.15417,10h7.53809v-.03046c.11572,.01111,.2301,.03046,.34766,.03046,3.25458,0,5.83929-4.31854,6.11334-10h1.90228v-2ZM8.09863,3h4.3208c-1.56635,1.97424-2.57471,5.23462-2.57471,9h-.92773c0,3.6698,.96558,6.85669,2.47424,8.8443-1.76074-.74542-3.47424-4.16815-3.47424-8.8443h-2c0,3.6698,.96558,6.85669,2.47424,8.8443-1.76074-.74542-3.47424-4.16815-3.47424-8.8443h-1C3.91699,6.69629,6.12109,3,8.09863,3Zm7.88574,18c-1.95801,0-4.13965-3.69629-4.13965-9S14.02637,3,15.98438,3c1.8324,0,3.86084,3.23767,4.11371,8h-3.09808v1c0,2.7793-.64062,4.4541-1.0127,4.91406-.13379-.16699-.34473-.5293-.54688-1.20215l-1.91602,.57617c.6748,2.24121,1.70996,2.71191,2.45996,2.71191,1.88379,0,2.82617-2.87402,2.98926-6h1.12445c-.25287,4.76233-2.28131,8-4.11371,8Z" fill="#1f2533"/>
</svg>