<svg xmlns="http://www.w3.org/2000/svg" width="84.001" height="89.999" viewBox="0 0 84.001 89.999"><path fill-rule="evenodd" clip-rule="evenodd" fill="#978981" d="M78.122 50.216V10.97c0-1.075-.54-2.26-1.618-3.55-1.08-1.29-2.266-1.935-3.668-1.935-1.295 0-2.48.645-3.776 1.936-1.08 1.292-1.618 2.475-1.726 3.55V77.218h-5.502V10.97c0-2.904.97-5.378 2.913-7.636C66.687 1.184 69.383.108 72.835 0c3.022 0 5.61.968 7.77 3.01 2.157 1.937 3.235 4.518 3.343 7.96v66.25h-5.826V50.215zM59.594 89.85l-2.146-2.763h-.338v2.763h-.596V83.9h1.19c.662 0 1.11.027 1.346.08.355.082.643.256.864.522.222.266.333.593.333.982 0 .324-.076.61-.23.854-.152.246-.37.43-.654.557-.284.126-.676.19-1.177.192l2.147 2.763h-.74zm-.572-3.45c.19-.077.34-.197.447-.363.106-.166.16-.352.16-.556 0-.2-.055-.38-.163-.543-.11-.163-.25-.28-.427-.35-.176-.07-.47-.105-.878-.105H57.11v2.022l1.028.008c.4 0 .693-.037.884-.113zm-7.87 3.6c-.884 0-1.63-.303-2.24-.907-.61-.604-.913-1.335-.913-2.193 0-.57.138-1.1.415-1.59.278-.488.656-.87 1.135-1.147.48-.276.997-.415 1.555-.415.904 0 1.66.3 2.27.902.61.6.913 1.34.913 2.22 0 .87-.304 1.61-.91 2.217-.61.61-1.35.912-2.225.912zm2.187-4.41c-.222-.383-.533-.69-.934-.918-.4-.23-.826-.344-1.276-.344-.442 0-.86.115-1.256.344-.396.23-.705.538-.927.927-.222.387-.333.82-.333 1.298 0 .707.246 1.304.738 1.79.492.488 1.084.732 1.778.732.463 0 .892-.112 1.286-.336.394-.224.702-.53.923-.92.22-.388.33-.82.33-1.295 0-.472-.11-.9-.33-1.28zm-5.247-51.94v5.7h-5.69v-5.7h5.69zM34.19 1.183h16.397v5.485H39.69v64.958h10.897v5.592H34.19V1.183zm-4.725 84.16v4.507h-.617V83.9h.13l3.972 4.56V83.9h.588v5.95h-.134l-3.94-4.506zm-4.126 2.55h-2.573l-.93 1.957h-.666l2.82-5.95h.147l2.783 5.95h-.644l-.937-1.958zm-1.277-2.73l-1.023 2.154h2.04l-1.017-2.154zm-5.4-10.85c-2.157 1.937-4.638 2.905-7.66 2.905H0v-5.592h11.004c1.295 0 2.482-.43 3.668-1.506 1.08-.968 1.618-2.15 1.618-3.657V12.045c0-1.398-.43-2.58-1.51-3.764-.97-1.075-2.157-1.612-3.776-1.612H0V1.183h11.004c3.02 0 5.61.968 7.768 2.904 2.158 1.936 3.237 4.517 3.344 7.958v54.418c0 3.227-1.08 5.808-3.452 7.85zM.618 89.85H.02V83.9h.597v5.95zm5.043-5.368H4.33v5.368h-.61v-5.368H2.39V83.9h3.27v.582zm3.622-.583l2.784 5.95h-.644l-.94-1.96h-2.57l-.93 1.96h-.666l2.82-5.95h.146zm.943 3.417l-1.018-2.154-1.023 2.154h2.04zm4.36 1.958h2.297v.574H13.99V83.9h.595v5.375zm4.75.575h-.596V83.9h.595v5.95zm21.447-1.663l1.71-4.288h.125l1.69 4.287 1.24-4.288h.61l-1.716 5.95h-.11l-1.77-4.503-1.807 4.502h-.11L38.95 83.9h.613l1.22 4.287zm22.35-2.055l2.385-2.233h.802l-2.868 2.67 3.09 3.28h-.794l-2.616-2.773v2.772h-.61V83.9h.61v2.232zm5.894 3.143h2.297v.574H68.43V83.9h.596v5.375zm1.02-55.625h5.69v5.7h-5.69v-5.7zm5.658 50.25l2.783 5.95h-.644l-.94-1.96h-2.57l-.93 1.96h-.666l2.82-5.95h.147zm.942 3.417l-1.018-2.154-1.023 2.154h2.04zm6.048-3.25c.254.112.455.284.603.516.147.232.22.49.22.773 0 .264-.064.505-.193.722-.13.217-.32.393-.57.528.31.105.55.23.716.37.167.142.297.313.39.514.093.2.14.418.14.653 0 .477-.175.88-.525 1.212-.35.33-.82.496-1.41.496h-1.64V83.9h1.178c.473 0 .837.056 1.09.167zm-1.684 5.2h.74c.436 0 .756-.042.96-.127.202-.085.365-.218.49-.398.122-.18.184-.376.184-.587 0-.264-.087-.495-.26-.692-.173-.197-.41-.332-.715-.405-.205-.05-.558-.073-1.062-.073h-.338v2.282zm0-2.88h.342c.415 0 .72-.038.915-.115.195-.077.35-.198.464-.364.115-.166.172-.35.172-.552 0-.272-.095-.486-.286-.642-.19-.155-.495-.232-.913-.232h-.693v1.905z"/></svg>